<svg width="38" height="38" viewBox="0 0 38 38" fill="none" xmlns="http://www.w3.org/2000/svg">
    <path d="M23.3859 19.6334C23.6234 19.7442 23.8925 19.7917 24.1459 19.7917C24.6684 19.7917 25.1592 19.5859 25.5392 19.2217L28.9909 15.8334H30.4792C32.8859 15.8334 34.8334 13.8859 34.8334 11.4792V7.52085C34.8334 5.11419 32.8859 3.16669 30.4792 3.16669H23.3542C20.9475 3.16669 19 5.11419 19 7.52085V11.4792C19 13.4742 20.3459 15.1525 22.1667 15.675V17.8125C22.1667 18.6042 22.6575 19.3167 23.3859 19.6334ZM12.6667 21.375C9.61088 21.375 7.12504 18.8892 7.12504 15.8334C7.12504 12.7775 9.61088 10.2917 12.6667 10.2917C15.7225 10.2917 18.2084 12.7775 18.2084 15.8334C18.2084 18.8892 15.7225 21.375 12.6667 21.375ZM12.6667 34.8334C9.40504 34.8334 6.90338 33.9467 5.22504 32.1892C3.10971 29.9662 3.16196 27.1637 3.16671 26.8739V26.8534C3.16671 25.1592 4.59171 23.75 6.33338 23.75H19C20.7417 23.75 22.1667 25.175 22.1667 26.9167L22.1683 26.9262C22.173 27.1273 22.2395 29.9504 20.11 32.1892C18.43 33.9467 15.9284 34.8334 12.6667 34.8334Z"
          fill="#D0D0D0"/>
</svg>
